<svg width="17" height="17" viewBox="0 0 17 17" fill="none" xmlns="http://www.w3.org/2000/svg">
<g clip-path="url(#clip0_0_173)">
<path d="M14.1704 0.811584L2.50375 0.811584C1.58327 0.811584 0.837082 1.55778 0.837082 2.47825L0.837082 14.1449C0.837082 15.0654 1.58327 15.8116 2.50375 15.8116H14.1704C15.0909 15.8116 15.8371 15.0654 15.8371 14.1449V2.47825C15.8371 1.55778 15.0909 0.811584 14.1704 0.811584Z" stroke="white" stroke-width="1.66667" stroke-linecap="round" stroke-linejoin="round"/>
<path d="M5.42076 6.64496C6.11112 6.64496 6.67076 6.08531 6.67076 5.39496C6.67076 4.7046 6.11112 4.14496 5.42076 4.14496C4.73041 4.14496 4.17076 4.7046 4.17076 5.39496C4.17076 6.08531 4.73041 6.64496 5.42076 6.64496Z" stroke="white" stroke-width="1.66667" stroke-linecap="round" stroke-linejoin="round"/>
<path d="M15.8374 10.8117L11.6708 6.64499L2.50409 15.8117" stroke="white" stroke-width="1.66667" stroke-linecap="round" stroke-linejoin="round"/>
</g>
<defs>
<clipPath id="clip0_0_173">
<rect width="16.6112" height="16.5586" fill="white"/>
</clipPath>
</defs>
</svg>
