<svg width="17" height="17" viewBox="0 0 17 17" fill="none" xmlns="http://www.w3.org/2000/svg">
<path d="M15.8333 7.91667C15.8362 9.01656 15.5792 10.1016 15.0833 11.0833C14.4954 12.2598 13.5915 13.2493 12.4729 13.9411C11.3543 14.6328 10.0652 14.9995 8.75001 15C7.65012 15.0029 6.56511 14.7459 5.58334 14.25L0.833344 15.8333L2.41668 11.0833C1.92079 10.1016 1.66381 9.01656 1.66668 7.91667C1.66719 6.60147 2.03385 5.31238 2.72561 4.19379C3.41737 3.07521 4.40689 2.17131 5.58334 1.58334C6.56511 1.08745 7.65012 0.830469 8.75001 0.833337H9.16668C10.9036 0.929163 12.5442 1.6623 13.7743 2.89239C15.0044 4.12247 15.7375 5.76305 15.8333 7.5V7.91667Z" stroke="white" stroke-width="1.66667" stroke-linecap="round" stroke-linejoin="round"/>
</svg>
