<svg width="22" height="22" viewBox="0 0 22 22" fill="none" xmlns="http://www.w3.org/2000/svg">
<path d="M10.833 0C16.816 0 21.6658 4.85007 21.666 10.833C21.666 16.8161 16.8161 21.666 10.833 21.666C4.85007 21.6658 0 16.816 0 10.833C0.000176534 4.85018 4.85018 0.000176538 10.833 0ZM10.833 1.66602C5.77066 1.66619 1.66619 5.77066 1.66602 10.833C1.66602 15.8955 5.77055 19.9998 10.833 20C15.8956 20 20 15.8956 20 10.833C19.9998 5.77055 15.8955 1.66602 10.833 1.66602ZM16.5527 8.52734L10.7627 14.5273L10.1396 15.1738L9.42969 14.6221L5.21973 11.3496L5.83301 10.5605L6.44629 9.77051L9.94727 12.4922L15.1133 7.13867L16.5527 8.52734Z" fill="#2B9B5B"/>
</svg>
