<svg width="146" height="188" viewBox="0 0 146 188" fill="none" xmlns="http://www.w3.org/2000/svg">
<g clip-path="url(#clip0_0_50)">
<rect width="146" height="188" rx="10" fill="#161C28"/>
<circle cx="3.83932" cy="168.503" r="79" fill="#232937"/>
<circle cx="161.158" cy="5.4209" r="79" fill="#232937"/>
<circle opacity="0.5" cx="43.0712" cy="23.8164" r="14" fill="white"/>
<circle opacity="0.5" cx="26.438" cy="23.8164" r="14" fill="white"/>
<path d="M18.0796 76H17.0228C16.9603 75.696 16.8509 75.429 16.6947 75.1989C16.5413 74.9688 16.3538 74.7756 16.1322 74.6193C15.9134 74.4602 15.6705 74.3409 15.4035 74.2614C15.1364 74.1818 14.858 74.142 14.5682 74.142C14.0398 74.142 13.5611 74.2756 13.1322 74.5426C12.706 74.8097 12.3665 75.2031 12.1137 75.723C11.8637 76.2429 11.7387 76.8807 11.7387 77.6364C11.7387 78.392 11.8637 79.0298 12.1137 79.5497C12.3665 80.0696 12.706 80.4631 13.1322 80.7301C13.5611 80.9972 14.0398 81.1307 14.5682 81.1307C14.858 81.1307 15.1364 81.0909 15.4035 81.0114C15.6705 80.9318 15.9134 80.8139 16.1322 80.6577C16.3538 80.4986 16.5413 80.304 16.6947 80.0739C16.8509 79.8409 16.9603 79.5739 17.0228 79.2727H18.0796C18.0001 79.7187 17.8552 80.1179 17.6449 80.4702C17.4347 80.8224 17.1734 81.1222 16.8609 81.3693C16.5484 81.6136 16.1975 81.7997 15.8083 81.9276C15.4219 82.0554 15.0086 82.1193 14.5682 82.1193C13.8239 82.1193 13.162 81.9375 12.5824 81.5739C12.0029 81.2102 11.5469 80.6932 11.2145 80.0227C10.8822 79.3523 10.716 78.5568 10.716 77.6364C10.716 76.7159 10.8822 75.9205 11.2145 75.25C11.5469 74.5795 12.0029 74.0625 12.5824 73.6989C13.162 73.3352 13.8239 73.1534 14.5682 73.1534C15.0086 73.1534 15.4219 73.2173 15.8083 73.3452C16.1975 73.473 16.5484 73.6605 16.8609 73.9077C17.1734 74.152 17.4347 74.4503 17.6449 74.8026C17.8552 75.152 18.0001 75.5511 18.0796 76ZM19.651 82V75.4545H20.6226V76.4432H20.6908C20.8101 76.1193 21.026 75.8565 21.3385 75.6548C21.651 75.4531 22.0033 75.3523 22.3953 75.3523C22.4692 75.3523 22.5615 75.3537 22.6723 75.3565C22.7831 75.3594 22.8669 75.3636 22.9237 75.3693V76.392C22.8896 76.3835 22.8115 76.3707 22.6893 76.3537C22.57 76.3338 22.4436 76.3239 22.3101 76.3239C21.9919 76.3239 21.7078 76.3906 21.4578 76.5241C21.2106 76.6548 21.0146 76.8366 20.8697 77.0696C20.7277 77.2997 20.6567 77.5625 20.6567 77.858V82H19.651ZM26.6609 82.1364C26.0302 82.1364 25.4862 81.9972 25.0288 81.7188C24.5743 81.4375 24.2234 81.0455 23.9763 80.5426C23.732 80.0369 23.6098 79.4489 23.6098 78.7784C23.6098 78.108 23.732 77.517 23.9763 77.0057C24.2234 76.4915 24.5672 76.0909 25.0075 75.804C25.4507 75.5142 25.9677 75.3693 26.5587 75.3693C26.8996 75.3693 27.2362 75.4261 27.5686 75.5398C27.901 75.6534 28.2035 75.8381 28.4763 76.0938C28.749 76.3466 28.9663 76.6818 29.1283 77.0994C29.2902 77.517 29.3712 78.0312 29.3712 78.642V79.0682H24.3257V78.1989H28.3484C28.3484 77.8295 28.2746 77.5 28.1268 77.2102C27.982 76.9205 27.7746 76.6918 27.5047 76.5241C27.2376 76.3565 26.9223 76.2727 26.5587 76.2727C26.1581 76.2727 25.8115 76.3722 25.5189 76.571C25.2291 76.767 25.0061 77.0227 24.8498 77.3381C24.6936 77.6534 24.6155 77.9915 24.6155 78.3523V78.9318C24.6155 79.4261 24.7007 79.8452 24.8712 80.1889C25.0445 80.5298 25.2845 80.7898 25.5913 80.9688C25.8981 81.1449 26.2547 81.233 26.6609 81.233C26.9251 81.233 27.1638 81.196 27.3768 81.1222C27.5927 81.0455 27.7788 80.9318 27.9351 80.7812C28.0913 80.6278 28.2121 80.4375 28.2973 80.2102L29.2689 80.483C29.1666 80.8125 28.9947 81.1023 28.7533 81.3523C28.5118 81.5994 28.2135 81.7926 27.8584 81.9318C27.5033 82.0682 27.1041 82.1364 26.6609 82.1364ZM32.8271 82.1534C32.4123 82.1534 32.0359 82.0753 31.6979 81.919C31.3598 81.7599 31.0913 81.5312 30.8925 81.233C30.6936 80.9318 30.5942 80.5682 30.5942 80.142C30.5942 79.767 30.668 79.4631 30.8158 79.2301C30.9635 78.9943 31.1609 78.8097 31.4081 78.6761C31.6552 78.5426 31.928 78.4432 32.2263 78.3778C32.5274 78.3097 32.83 78.2557 33.1339 78.2159C33.5317 78.1648 33.8541 78.1264 34.1013 78.1009C34.3513 78.0724 34.5331 78.0256 34.6467 77.9602C34.7632 77.8949 34.8214 77.7812 34.8214 77.6193V77.5852C34.8214 77.1648 34.7064 76.8381 34.4763 76.6051C34.249 76.3722 33.9038 76.2557 33.4408 76.2557C32.9606 76.2557 32.5842 76.3608 32.3115 76.571C32.0388 76.7812 31.847 77.0057 31.7362 77.2443L30.7817 76.9034C30.9521 76.5057 31.1794 76.196 31.4635 75.9744C31.7504 75.75 32.0629 75.5937 32.401 75.5057C32.7419 75.4148 33.0771 75.3693 33.4067 75.3693C33.6169 75.3693 33.8584 75.3949 34.1311 75.446C34.4067 75.4943 34.6723 75.5952 34.928 75.7486C35.1865 75.902 35.401 76.1335 35.5714 76.4432C35.7419 76.7528 35.8271 77.1676 35.8271 77.6875V82H34.8214V81.1136H34.7703C34.7021 81.2557 34.5885 81.4077 34.4294 81.5696C34.2703 81.7315 34.0587 81.8693 33.7945 81.983C33.5302 82.0966 33.2078 82.1534 32.8271 82.1534ZM32.9805 81.25C33.3783 81.25 33.7135 81.1719 33.9862 81.0156C34.2618 80.8594 34.4692 80.6577 34.6084 80.4105C34.7504 80.1634 34.8214 79.9034 34.8214 79.6307V78.7102C34.7788 78.7614 34.6851 78.8082 34.5402 78.8509C34.3981 78.8906 34.2334 78.9261 34.0459 78.9574C33.8612 78.9858 33.6808 79.0114 33.5047 79.0341C33.3314 79.054 33.1908 79.071 33.0828 79.0852C32.8214 79.1193 32.5771 79.1747 32.3498 79.2514C32.1254 79.3253 31.9436 79.4375 31.8044 79.5881C31.668 79.7358 31.5998 79.9375 31.5998 80.1932C31.5998 80.5426 31.7291 80.8068 31.9876 80.9858C32.249 81.1619 32.58 81.25 32.9805 81.25ZM40.1343 82.1364C39.5888 82.1364 39.1073 81.9986 38.6897 81.723C38.2721 81.4446 37.9454 81.0526 37.7096 80.5469C37.4738 80.0384 37.3559 79.4375 37.3559 78.7443C37.3559 78.0568 37.4738 77.4602 37.7096 76.9545C37.9454 76.4489 38.2735 76.0582 38.694 75.7827C39.1144 75.5071 39.6002 75.3693 40.1513 75.3693C40.5775 75.3693 40.9141 75.4403 41.1613 75.5824C41.4113 75.7216 41.6016 75.8807 41.7323 76.0597C41.8658 76.2358 41.9695 76.3807 42.0434 76.4943H42.1286V73.2727H43.1343V82H42.1627V80.9943H42.0434C41.9695 81.1136 41.8644 81.2642 41.728 81.446C41.5917 81.625 41.3971 81.7855 41.1442 81.9276C40.8914 82.0668 40.5547 82.1364 40.1343 82.1364ZM40.2707 81.233C40.6741 81.233 41.015 81.1278 41.2934 80.9176C41.5718 80.7045 41.7834 80.4105 41.9283 80.0355C42.0732 79.6577 42.1457 79.2216 42.1457 78.7273C42.1457 78.2386 42.0746 77.8111 41.9326 77.4446C41.7905 77.0753 41.5803 76.7884 41.3019 76.5838C41.0235 76.3764 40.6797 76.2727 40.2707 76.2727C39.8445 76.2727 39.4894 76.3821 39.2053 76.6009C38.9241 76.8168 38.7124 77.1108 38.5704 77.483C38.4312 77.8523 38.3616 78.267 38.3616 78.7273C38.3616 79.1932 38.4326 79.6165 38.5746 79.9972C38.7195 80.375 38.9326 80.6761 39.2138 80.9006C39.4979 81.1222 39.8502 81.233 40.2707 81.233ZM45.1158 82V75.4545H46.1215V82H45.1158ZM45.6272 74.3636C45.4312 74.3636 45.2621 74.2969 45.1201 74.1634C44.9809 74.0298 44.9113 73.8693 44.9113 73.6818C44.9113 73.4943 44.9809 73.3338 45.1201 73.2003C45.2621 73.0668 45.4312 73 45.6272 73C45.8232 73 45.9908 73.0668 46.13 73.2003C46.2721 73.3338 46.3431 73.4943 46.3431 73.6818C46.3431 73.8693 46.2721 74.0298 46.13 74.1634C45.9908 74.2969 45.8232 74.3636 45.6272 74.3636ZM50.8101 75.4545V76.3068H47.418V75.4545H50.8101ZM48.4067 73.8864H49.4123V80.125C49.4123 80.4091 49.4535 80.6222 49.5359 80.7642C49.6212 80.9034 49.7291 80.9972 49.8598 81.0455C49.9933 81.0909 50.1339 81.1136 50.2817 81.1136C50.3925 81.1136 50.4834 81.108 50.5544 81.0966C50.6254 81.0824 50.6822 81.071 50.7248 81.0625L50.9294 81.9659C50.8612 81.9915 50.766 82.017 50.6439 82.0426C50.5217 82.071 50.3669 82.0852 50.1794 82.0852C49.8953 82.0852 49.6169 82.0241 49.3442 81.902C49.0743 81.7798 48.8498 81.5938 48.6709 81.3438C48.4947 81.0938 48.4067 80.7784 48.4067 80.3977V73.8864ZM62.857 76H61.8001C61.7376 75.696 61.6283 75.429 61.472 75.1989C61.3186 74.9688 61.1311 74.7756 60.9095 74.6193C60.6908 74.4602 60.4479 74.3409 60.1808 74.2614C59.9138 74.1818 59.6354 74.142 59.3456 74.142C58.8172 74.142 58.3385 74.2756 57.9095 74.5426C57.4834 74.8097 57.1439 75.2031 56.891 75.723C56.641 76.2429 56.516 76.8807 56.516 77.6364C56.516 78.392 56.641 79.0298 56.891 79.5497C57.1439 80.0696 57.4834 80.4631 57.9095 80.7301C58.3385 80.9972 58.8172 81.1307 59.3456 81.1307C59.6354 81.1307 59.9138 81.0909 60.1808 81.0114C60.4479 80.9318 60.6908 80.8139 60.9095 80.6577C61.1311 80.4986 61.3186 80.304 61.472 80.0739C61.6283 79.8409 61.7376 79.5739 61.8001 79.2727H62.857C62.7774 79.7187 62.6325 80.1179 62.4223 80.4702C62.2121 80.8224 61.9507 81.1222 61.6382 81.3693C61.3257 81.6136 60.9748 81.7997 60.5856 81.9276C60.1993 82.0554 59.7859 82.1193 59.3456 82.1193C58.6013 82.1193 57.9393 81.9375 57.3598 81.5739C56.7802 81.2102 56.3243 80.6932 55.9919 80.0227C55.6595 79.3523 55.4933 78.5568 55.4933 77.6364C55.4933 76.7159 55.6595 75.9205 55.9919 75.25C56.3243 74.5795 56.7802 74.0625 57.3598 73.6989C57.9393 73.3352 58.6013 73.1534 59.3456 73.1534C59.7859 73.1534 60.1993 73.2173 60.5856 73.3452C60.9748 73.473 61.3257 73.6605 61.6382 73.9077C61.9507 74.152 62.2121 74.4503 62.4223 74.8026C62.6325 75.152 62.7774 75.5511 62.857 76ZM64.4283 82V75.4545H65.3999V76.4432H65.4681C65.5874 76.1193 65.8033 75.8565 66.1158 75.6548C66.4283 75.4531 66.7806 75.3523 67.1726 75.3523C67.2465 75.3523 67.3388 75.3537 67.4496 75.3565C67.5604 75.3594 67.6442 75.3636 67.7011 75.3693V76.392C67.667 76.3835 67.5888 76.3707 67.4667 76.3537C67.3474 76.3338 67.2209 76.3239 67.0874 76.3239C66.7692 76.3239 66.4851 76.3906 66.2351 76.5241C65.988 76.6548 65.792 76.8366 65.6471 77.0696C65.505 77.2997 65.434 77.5625 65.434 77.858V82H64.4283ZM70.8193 82.1534C70.4045 82.1534 70.0281 82.0753 69.69 81.919C69.352 81.7599 69.0835 81.5312 68.8846 81.233C68.6858 80.9318 68.5864 80.5682 68.5864 80.142C68.5864 79.767 68.6602 79.4631 68.8079 79.2301C68.9557 78.9943 69.1531 78.8097 69.4003 78.6761C69.6474 78.5426 69.9202 78.4432 70.2185 78.3778C70.5196 78.3097 70.8221 78.2557 71.1261 78.2159C71.5239 78.1648 71.8463 78.1264 72.0935 78.1009C72.3435 78.0724 72.5253 78.0256 72.6389 77.9602C72.7554 77.8949 72.8136 77.7812 72.8136 77.6193V77.5852C72.8136 77.1648 72.6986 76.8381 72.4685 76.6051C72.2412 76.3722 71.896 76.2557 71.4329 76.2557C70.9528 76.2557 70.5764 76.3608 70.3037 76.571C70.031 76.7812 69.8392 77.0057 69.7284 77.2443L68.7739 76.9034C68.9443 76.5057 69.1716 76.196 69.4557 75.9744C69.7426 75.75 70.0551 75.5937 70.3932 75.5057C70.7341 75.4148 71.0693 75.3693 71.3989 75.3693C71.6091 75.3693 71.8506 75.3949 72.1233 75.446C72.3989 75.4943 72.6645 75.5952 72.9202 75.7486C73.1787 75.902 73.3932 76.1335 73.5636 76.4432C73.7341 76.7528 73.8193 77.1676 73.8193 77.6875V82H72.8136V81.1136H72.7625C72.6943 81.2557 72.5807 81.4077 72.4216 81.5696C72.2625 81.7315 72.0508 81.8693 71.7866 81.983C71.5224 82.0966 71.2 82.1534 70.8193 82.1534ZM70.9727 81.25C71.3704 81.25 71.7057 81.1719 71.9784 81.0156C72.254 80.8594 72.4614 80.6577 72.6006 80.4105C72.7426 80.1634 72.8136 79.9034 72.8136 79.6307V78.7102C72.771 78.7614 72.6773 78.8082 72.5324 78.8509C72.3903 78.8906 72.2256 78.9261 72.0381 78.9574C71.8534 78.9858 71.673 79.0114 71.4969 79.0341C71.3236 79.054 71.1829 79.071 71.075 79.0852C70.8136 79.1193 70.5693 79.1747 70.342 79.2514C70.1176 79.3253 69.9358 79.4375 69.7966 79.5881C69.6602 79.7358 69.592 79.9375 69.592 80.1932C69.592 80.5426 69.7213 80.8068 69.9798 80.9858C70.2412 81.1619 70.5721 81.25 70.9727 81.25ZM78.1265 82.1364C77.581 82.1364 77.0995 81.9986 76.6819 81.723C76.2643 81.4446 75.9376 81.0526 75.7018 80.5469C75.466 80.0384 75.3481 79.4375 75.3481 78.7443C75.3481 78.0568 75.466 77.4602 75.7018 76.9545C75.9376 76.4489 76.2657 76.0582 76.6861 75.7827C77.1066 75.5071 77.5924 75.3693 78.1435 75.3693C78.5697 75.3693 78.9063 75.4403 79.1535 75.5824C79.4035 75.7216 79.5938 75.8807 79.7245 76.0597C79.858 76.2358 79.9617 76.3807 80.0356 76.4943H80.1208V73.2727H81.1265V82H80.1549V80.9943H80.0356C79.9617 81.1136 79.8566 81.2642 79.7202 81.446C79.5839 81.625 79.3893 81.7855 79.1364 81.9276C78.8836 82.0668 78.5469 82.1364 78.1265 82.1364ZM78.2628 81.233C78.6663 81.233 79.0072 81.1278 79.2856 80.9176C79.564 80.7045 79.7756 80.4105 79.9205 80.0355C80.0654 79.6577 80.1378 79.2216 80.1378 78.7273C80.1378 78.2386 80.0668 77.8111 79.9248 77.4446C79.7827 77.0753 79.5725 76.7884 79.2941 76.5838C79.0157 76.3764 78.6719 76.2727 78.2628 76.2727C77.8367 76.2727 77.4816 76.3821 77.1975 76.6009C76.9163 76.8168 76.7046 77.1108 76.5626 77.483C76.4234 77.8523 76.3538 78.267 76.3538 78.7273C76.3538 79.1932 76.4248 79.6165 76.5668 79.9972C76.7117 80.375 76.9248 80.6761 77.206 80.9006C77.4901 81.1222 77.8424 81.233 78.2628 81.233Z" fill="#E6E6E6"/>
<circle cx="11.9996" cy="97" r="2" fill="#D9D9D9"/>
<circle cx="22.9996" cy="97" r="2" fill="#D9D9D9"/>
<circle cx="33.9996" cy="97" r="2" fill="#D9D9D9"/>
<circle cx="44.9993" cy="97" r="2" fill="#D9D9D9"/>
<path d="M61.9712 92.2727V101H60.9144V93.3807H60.8633L58.7326 94.7955V93.7216L60.9144 92.2727H61.9712ZM64.4812 101V100.233L67.3618 97.0795C67.6999 96.7102 67.9783 96.3892 68.1971 96.1165C68.4158 95.8409 68.5778 95.5824 68.6829 95.3409C68.7908 95.0966 68.8448 94.8409 68.8448 94.5739C68.8448 94.267 68.7709 94.0014 68.6232 93.777C68.4783 93.5526 68.2795 93.3793 68.0266 93.2571C67.7738 93.1349 67.4897 93.0739 67.1743 93.0739C66.8391 93.0739 66.5465 93.1435 66.2965 93.2827C66.0493 93.419 65.8576 93.6108 65.7212 93.858C65.5877 94.1051 65.5209 94.3949 65.5209 94.7273H64.5153C64.5153 94.2159 64.6332 93.767 64.869 93.3807C65.1047 92.9943 65.4258 92.6932 65.832 92.4773C66.2411 92.2614 66.6999 92.1534 67.2084 92.1534C67.7198 92.1534 68.1729 92.2614 68.5678 92.4773C68.9627 92.6932 69.2724 92.9844 69.4968 93.3509C69.7212 93.7173 69.8334 94.125 69.8334 94.5739C69.8334 94.8949 69.7752 95.2088 69.6587 95.5156C69.5451 95.8196 69.3462 96.1591 69.0621 96.5341C68.7809 96.9062 68.3903 97.3608 67.8903 97.8977L65.93 99.9943V100.062H69.9869V101H64.4812ZM74.6957 101.119C74.1332 101.119 73.6317 101.023 73.1914 100.83C72.7539 100.636 72.4059 100.368 72.1474 100.024C71.8917 99.6776 71.7525 99.2756 71.7297 98.8182H72.8036C72.8263 99.0994 72.9229 99.3423 73.0934 99.5469C73.2638 99.7486 73.4868 99.9048 73.7624 100.016C74.038 100.126 74.3434 100.182 74.6786 100.182C75.0536 100.182 75.386 100.116 75.6758 99.9858C75.9655 99.8551 76.1928 99.6733 76.3576 99.4403C76.5224 99.2074 76.6047 98.9375 76.6047 98.6307C76.6047 98.3097 76.5252 98.027 76.3661 97.7827C76.207 97.5355 75.9741 97.3423 75.6672 97.2031C75.3604 97.0639 74.9854 96.9943 74.5422 96.9943H73.8434V96.0568H74.5422C74.8888 96.0568 75.1928 95.9943 75.4542 95.8693C75.7184 95.7443 75.9243 95.5682 76.0721 95.3409C76.2226 95.1136 76.2979 94.8466 76.2979 94.5398C76.2979 94.2443 76.2326 93.9872 76.1019 93.7685C75.9712 93.5497 75.7866 93.3793 75.5479 93.2571C75.3121 93.1349 75.0337 93.0739 74.7127 93.0739C74.4116 93.0739 74.1275 93.1293 73.8604 93.2401C73.5962 93.348 73.3803 93.5057 73.2127 93.7131C73.0451 93.9176 72.9542 94.1648 72.94 94.4545H71.9172C71.9343 93.9972 72.0721 93.5966 72.3306 93.2528C72.5891 92.9062 72.9272 92.6364 73.3448 92.4432C73.7653 92.25 74.2269 92.1534 74.7297 92.1534C75.2695 92.1534 75.7326 92.2628 76.119 92.4815C76.5053 92.6974 76.8022 92.983 77.0096 93.3381C77.217 93.6932 77.3207 94.0767 77.3207 94.4886C77.3207 94.9801 77.1914 95.3991 76.9329 95.7457C76.6772 96.0923 76.3292 96.3324 75.8888 96.4659V96.5341C76.44 96.625 76.8704 96.8594 77.18 97.2372C77.4897 97.6122 77.6445 98.0767 77.6445 98.6307C77.6445 99.1051 77.5153 99.5312 77.2567 99.9091C77.0011 100.284 76.6516 100.58 76.2084 100.795C75.7653 101.011 75.261 101.119 74.6957 101.119ZM79.1829 99.2102V98.3409L83.0181 92.2727H83.6488V93.6193H83.2226L80.3249 98.2045V98.2727H85.4897V99.2102H79.1829ZM83.2908 101V98.946V98.5412V92.2727H84.2965V101H83.2908Z" fill="#F0F0EF"/>
<path d="M105.75 159.119C105.108 159.119 104.561 158.945 104.11 158.595C103.658 158.243 103.313 157.733 103.074 157.065C102.836 156.395 102.716 155.585 102.716 154.636C102.716 153.693 102.836 152.888 103.074 152.22C103.316 151.55 103.662 151.038 104.114 150.686C104.568 150.331 105.114 150.153 105.75 150.153C106.387 150.153 106.931 150.331 107.382 150.686C107.837 151.038 108.184 151.55 108.422 152.22C108.664 152.888 108.784 153.693 108.784 154.636C108.784 155.585 108.665 156.395 108.426 157.065C108.188 157.733 107.843 158.243 107.391 158.595C106.939 158.945 106.392 159.119 105.75 159.119ZM105.75 158.182C106.387 158.182 106.881 157.875 107.233 157.261C107.586 156.648 107.762 155.773 107.762 154.636C107.762 153.881 107.681 153.237 107.519 152.706C107.36 152.175 107.13 151.77 106.828 151.491C106.53 151.213 106.171 151.074 105.75 151.074C105.12 151.074 104.627 151.385 104.272 152.007C103.916 152.626 103.739 153.503 103.739 154.636C103.739 155.392 103.818 156.034 103.978 156.562C104.137 157.091 104.365 157.493 104.664 157.768C104.965 158.044 105.327 158.182 105.75 158.182ZM113.182 150.153C113.54 150.156 113.898 150.224 114.256 150.358C114.614 150.491 114.941 150.713 115.236 151.023C115.532 151.33 115.769 151.749 115.948 152.28C116.127 152.811 116.216 153.477 116.216 154.278C116.216 155.054 116.142 155.743 115.995 156.345C115.85 156.945 115.64 157.45 115.364 157.862C115.091 158.274 114.759 158.587 114.367 158.8C113.978 159.013 113.537 159.119 113.046 159.119C112.557 159.119 112.121 159.023 111.738 158.83C111.357 158.634 111.044 158.362 110.8 158.016C110.559 157.666 110.404 157.261 110.336 156.801H111.375C111.469 157.202 111.655 157.533 111.934 157.794C112.215 158.053 112.586 158.182 113.046 158.182C113.719 158.182 114.25 157.888 114.64 157.3C115.032 156.712 115.228 155.881 115.228 154.807H115.159C115 155.045 114.811 155.251 114.593 155.425C114.374 155.598 114.131 155.732 113.864 155.825C113.597 155.919 113.313 155.966 113.012 155.966C112.512 155.966 112.053 155.842 111.635 155.595C111.22 155.345 110.888 155.003 110.638 154.568C110.391 154.131 110.267 153.631 110.267 153.068C110.267 152.534 110.387 152.045 110.625 151.602C110.867 151.156 111.205 150.801 111.64 150.537C112.077 150.273 112.591 150.145 113.182 150.153ZM113.182 151.091C112.824 151.091 112.502 151.18 112.215 151.359C111.931 151.536 111.705 151.774 111.537 152.075C111.372 152.374 111.29 152.705 111.29 153.068C111.29 153.432 111.37 153.763 111.529 154.061C111.691 154.357 111.911 154.592 112.189 154.768C112.47 154.942 112.79 155.028 113.148 155.028C113.418 155.028 113.669 154.976 113.902 154.871C114.135 154.763 114.338 154.616 114.512 154.432C114.688 154.244 114.826 154.033 114.925 153.797C115.024 153.558 115.074 153.31 115.074 153.051C115.074 152.71 114.992 152.391 114.827 152.092C114.665 151.794 114.441 151.553 114.154 151.368C113.87 151.183 113.546 151.091 113.182 151.091ZM120.994 149.864L118.182 160.312H117.261L120.074 149.864H120.994ZM122.169 159V158.233L125.05 155.08C125.388 154.71 125.666 154.389 125.885 154.116C126.104 153.841 126.266 153.582 126.371 153.341C126.479 153.097 126.533 152.841 126.533 152.574C126.533 152.267 126.459 152.001 126.311 151.777C126.166 151.553 125.968 151.379 125.715 151.257C125.462 151.135 125.178 151.074 124.863 151.074C124.527 151.074 124.235 151.143 123.985 151.283C123.738 151.419 123.546 151.611 123.409 151.858C123.276 152.105 123.209 152.395 123.209 152.727H122.203C122.203 152.216 122.321 151.767 122.557 151.381C122.793 150.994 123.114 150.693 123.52 150.477C123.929 150.261 124.388 150.153 124.897 150.153C125.408 150.153 125.861 150.261 126.256 150.477C126.651 150.693 126.961 150.984 127.185 151.351C127.409 151.717 127.522 152.125 127.522 152.574C127.522 152.895 127.463 153.209 127.347 153.516C127.233 153.82 127.034 154.159 126.75 154.534C126.469 154.906 126.078 155.361 125.578 155.898L123.618 157.994V158.062H127.675V159H122.169ZM132.162 159.119C131.662 159.119 131.212 159.02 130.811 158.821C130.411 158.622 130.09 158.349 129.848 158.003C129.607 157.656 129.475 157.261 129.452 156.818H130.475C130.515 157.213 130.693 157.54 131.012 157.798C131.333 158.054 131.716 158.182 132.162 158.182C132.52 158.182 132.838 158.098 133.117 157.93C133.398 157.763 133.618 157.533 133.777 157.24C133.939 156.945 134.02 156.611 134.02 156.239C134.02 155.858 133.936 155.518 133.769 155.22C133.604 154.919 133.377 154.682 133.087 154.509C132.797 154.335 132.466 154.247 132.094 154.244C131.827 154.241 131.553 154.283 131.272 154.368C130.99 154.45 130.759 154.557 130.577 154.688L129.588 154.568L130.117 150.273H134.651V151.21H131.003L130.696 153.784H130.747C130.926 153.642 131.151 153.524 131.421 153.43C131.691 153.337 131.972 153.29 132.265 153.29C132.799 153.29 133.274 153.418 133.692 153.673C134.113 153.926 134.442 154.273 134.681 154.713C134.922 155.153 135.043 155.656 135.043 156.222C135.043 156.778 134.918 157.276 134.668 157.713C134.421 158.148 134.08 158.491 133.645 158.744C133.211 158.994 132.716 159.119 132.162 159.119Z" fill="#F8F8FA"/>
<rect opacity="0.2" x="10.0003" y="143" width="34" height="22" rx="4" fill="white"/>
</g>
<defs>
<clipPath id="clip0_0_50">
<rect width="146" height="188" rx="10" fill="white"/>
</clipPath>
</defs>
</svg>
